<svg xmlns="http://www.w3.org/2000/svg" width="240.66" height="229.336" viewBox="0 0 240.66 229.336"><defs><style>.a{fill:#e3e7ef;stroke:rgba(0,0,0,0);}</style></defs><g transform="translate(-5925.5 -507.5)"><path class="a" d="M6148.651,585.969H6069.8V524.106A16.045,16.045,0,0,0,6053.849,508h-111.9A16.046,16.046,0,0,0,5926,524.106v79.38a16.046,16.046,0,0,0,15.947,16.106h7.667c.1,4.336.646,18.5,3.479,25.618.956,2.4,2.1,3.842,3.5,4.41a3.754,3.754,0,0,0,1.417.262c1.467,0,3.294-.717,5.615-2.189,9.935-6.3,26.113-24.88,28.884-28.1h19.128v67.6a17.028,17.028,0,0,0,17.009,17.009h65.825c2.887,3.321,20.308,23.128,30.984,29.828,2.472,1.551,4.413,2.306,5.965,2.306a3.942,3.942,0,0,0,1.48-.271c1.48-.592,2.693-2.107,3.709-4.633,3.051-7.586,3.624-22.726,3.727-27.231h8.314a17.028,17.028,0,0,0,17.009-17.009V602.978A17.028,17.028,0,0,0,6148.651,585.969Zm-156.729,31.067a1.276,1.276,0,0,0-.973.449c-.183.214-18.357,21.494-28.693,28.049-3.229,2.048-4.415,1.832-4.7,1.715-.4-.162-1.2-.765-2.087-2.985-3.121-7.847-3.317-25.782-3.319-25.962a1.278,1.278,0,0,0-1.278-1.267h-8.923a13.486,13.486,0,0,1-13.391-13.55v-79.38a13.486,13.486,0,0,1,13.391-13.55h111.9a13.486,13.486,0,0,1,13.391,13.55v61.863h-38.592a17.028,17.028,0,0,0-17.009,17.009v14.058ZM6163.1,687.193a14.469,14.469,0,0,1-14.452,14.453h-9.569a1.278,1.278,0,0,0-1.278,1.267c0,.191-.212,19.23-3.565,27.567-.958,2.383-1.843,3.036-2.285,3.213-.41.165-1.728.312-5.137-1.828-11.1-6.962-30.594-29.547-30.791-29.774a1.28,1.28,0,0,0-.969-.444h-66.409a14.469,14.469,0,0,1-14.452-14.453V602.978a14.469,14.469,0,0,1,14.452-14.452h120a14.469,14.469,0,0,1,14.452,14.452Z"/><path class="a" d="M6001.584,543.535l-13.836-2a.285.285,0,0,1-.214-.155l-6.2-12.529a2.822,2.822,0,0,0-2.546-1.581h0a2.823,2.823,0,0,0-2.545,1.586l-6.174,12.542a.284.284,0,0,1-.215.156l-13.831,2.024a2.84,2.84,0,0,0-1.569,4.846l10.02,9.747a.286.286,0,0,1,.082.252l-2.35,13.78a2.837,2.837,0,0,0,4.125,2.99l12.367-6.517a.281.281,0,0,1,.265,0l12.38,6.493a2.841,2.841,0,0,0,4.119-3l-2.377-13.775a.284.284,0,0,1,.082-.252l10-9.767a2.841,2.841,0,0,0-1.579-4.843Zm-.208,3.015-10,9.767a2.838,2.838,0,0,0-.814,2.515l2.377,13.776a.268.268,0,0,1-.113.279.263.263,0,0,1-.3.022l-12.38-6.494a2.844,2.844,0,0,0-2.643,0l-12.368,6.518a.284.284,0,0,1-.411-.3l2.35-13.781a2.842,2.842,0,0,0-.82-2.512l-10.02-9.747a.284.284,0,0,1,.157-.485l13.831-2.023a2.839,2.839,0,0,0,2.138-1.556l6.174-12.542a.265.265,0,0,1,.255-.158h0a.265.265,0,0,1,.254.158l6.2,12.529a2.841,2.841,0,0,0,2.14,1.553l13.836,2a.284.284,0,0,1,.158.484Z" transform="translate(-9.957 -6.956)"/><path class="a" d="M5974.919,623.9l-5.28-.762-2.366-4.782a1.9,1.9,0,0,0-1.713-1.064h0a1.9,1.9,0,0,0-1.714,1.067l-2.356,4.787-5.28.773a1.913,1.913,0,0,0-1.057,3.263l3.824,3.72-.9,5.26a1.91,1.91,0,0,0,2.777,2.013l4.72-2.487,4.725,2.478a1.912,1.912,0,0,0,2.772-2.018l-.907-5.257,3.816-3.728a1.912,1.912,0,0,0-1.063-3.26Zm-4.78,5.4a1.912,1.912,0,0,0-.55,1.694l.742,4.3-3.869-2.029a1.914,1.914,0,0,0-1.778,0l-3.865,2.037.734-4.307a1.914,1.914,0,0,0-.552-1.692l-3.131-3.046,4.325-.633a1.913,1.913,0,0,0,1.437-1.047l1.931-3.92,1.937,3.916a1.912,1.912,0,0,0,1.441,1.044l4.323.624Z" transform="translate(-10.312 -39.445)"/><path class="a" d="M6018.169,623.9l-5.28-.762-2.366-4.782a1.9,1.9,0,0,0-1.713-1.064h0a1.9,1.9,0,0,0-1.714,1.067l-2.356,4.787-5.279.773a1.913,1.913,0,0,0-1.057,3.263l3.824,3.72-.9,5.26a1.91,1.91,0,0,0,2.777,2.013l4.72-2.487,4.725,2.478a1.912,1.912,0,0,0,2.772-2.018l-.908-5.257,3.817-3.728a1.912,1.912,0,0,0-1.063-3.26Zm-4.78,5.4a1.912,1.912,0,0,0-.55,1.694l.742,4.3-3.869-2.029a1.914,1.914,0,0,0-1.778,0l-3.865,2.037L6004.8,631a1.914,1.914,0,0,0-.552-1.692l-3.131-3.046,4.325-.633a1.914,1.914,0,0,0,1.437-1.047l1.931-3.92,1.937,3.916a1.912,1.912,0,0,0,1.441,1.044l4.323.624Z" transform="translate(-25.921 -39.445)"/><path class="a" d="M6055.278,570.556h42.18a1.278,1.278,0,0,0,0-2.556h-42.18a1.278,1.278,0,1,0,0,2.556Z" transform="translate(-46.196 -21.654)"/><path class="a" d="M6082.759,596.278a1.279,1.279,0,0,0-1.278-1.278h-26.2a1.278,1.278,0,1,0,0,2.556h26.2A1.279,1.279,0,0,0,6082.759,596.278Z" transform="translate(-46.196 -31.399)"/><path class="a" d="M6190.4,729.083a1.272,1.272,0,0,0-1.509,1,22.694,22.694,0,0,1-44.213,1.046,1.279,1.279,0,0,0-2.478.631,25.251,25.251,0,0,0,49.2-1.164A1.276,1.276,0,0,0,6190.4,729.083Z" transform="translate(-78.013 -79.78)"/><ellipse class="a" cx="6" cy="10.5" rx="6" ry="10.5" transform="translate(6056.33 621.528)"/><ellipse class="a" cx="5.5" cy="10.5" rx="5.5" ry="10.5" transform="translate(6108.33 621.528)"/></g></svg>